<?xml version="1.0" encoding="UTF-8" standalone="no"?>
<!-- Created with Inkscape (http://www.inkscape.org/) -->

<svg
   width="186.84892mm"
   height="196.3602mm"
   viewBox="0 0 186.84892 196.3602"
   version="1.1"
   id="svg1"
   xml:space="preserve"
   xmlns="http://www.w3.org/2000/svg"
   xmlns:svg="http://www.w3.org/2000/svg"><defs
     id="defs1" /><g
     id="layer1"
     transform="translate(-18.774953,-54.195563)"><path
       style="fill:#1eabb8;fill-opacity:1;stroke-width:0.597001"
       d="m 34.154437,174.24175 c 11.241557,-1.74516 15.05313,-4.99987 23.600343,-14.67157 7.595987,-8.59532 13.571176,-26.59735 21.462425,-50.9907 9.037344,-27.936146 20.20498,-49.412476 42.857095,-53.269927 17.01639,-2.897738 30.09423,-0.611953 42.39757,12.465594 6.2673,6.661683 9.75806,17.33042 8.7898,19.649814 -2.85478,6.838417 -12.47764,-0.711528 -18.75826,-2.99157 -9.3739,-3.402989 -18.1334,-3.23263 -29.26299,4.73711 -9.09163,6.51039 -16.35746,24.809069 -22.24343,41.968329 -5.546693,16.17016 -14.980911,32.86007 -31.525057,43.40292 -13.476567,8.58802 -30.053361,8.42908 -35.032357,7.98304 -7.396506,-0.66261 -9.290147,-2.55012 -9.300628,-3.95277 -0.01,-1.33454 1.060573,-3.40582 7.015489,-4.33027 z"
       id="path4" /><path
       style="fill:#1eabb8;fill-opacity:1;stroke-width:0.566845"
       d="m 53.132162,196.32632 c 15.607636,-0.40082 34.953803,-6.42341 43.447482,-16.41963 16.178786,-19.04084 22.779036,-35.0504 32.415086,-46.41628 10.42749,-12.29939 25.18598,-19.7405 38.29865,-19.63128 18.6094,0.15501 32.68305,9.53354 36.41458,20.08292 4.39962,12.43813 1.54164,27.35569 -11.91103,37.50602 -7.45467,5.62471 -19.95088,4.47492 -28.02349,-2.39064 -4.68534,-3.98475 -6.74183,-8.35443 -4.97512,-10.42232 1.58252,-1.85231 6.48439,0.5979 8.77972,1.78068 3.45576,1.78074 8.72225,2.47919 12.23425,-0.0379 3.78538,-2.71301 6.1206,-8.16295 3.84021,-13.61915 -2.83996,-6.79505 -8.45686,-8.68512 -16.22299,-7.36695 -5.55988,0.94369 -14.51463,7.47323 -17.79726,14.36722 -5.14345,10.80193 -9.18955,22.1086 -21.0538,37.38749 -10.56488,13.60555 -26.0001,21.39895 -43.502261,21.64706 -12.778873,0.18116 -32.337899,-2.62955 -42.258496,-5.787 -8.421685,-2.6804 -14.231285,-6.45807 -13.084744,-8.98575 1.273487,-2.80755 9.001413,-1.32476 23.399213,-1.69451 z"
       id="path5" /><path
       style="fill:#1eabb8;fill-opacity:1;stroke-width:0.422235"
       d="m 22.241436,169.91857 c 3.177329,1.31662 18.024887,-9.44068 24.377159,-24.76573 6.352277,-15.32506 2.482328,-30.32459 -0.435733,-31.51572 -2.917928,-1.19145 -17.383463,6.44271 -23.660606,21.51059 -6.277137,15.06787 -3.458177,33.45432 -0.28082,34.77086 z"
       id="path9" /><path
       style="fill:#1eabb8;fill-opacity:1;stroke-width:0.422235"
       d="m 29.705446,215.5062 c -1.831699,2.91097 6.278316,19.35473 20.318371,28.19133 14.040061,8.8366 29.476554,7.54157 31.140988,4.8651 1.664729,-2.6763 -3.430716,-18.21877 -17.229876,-26.93811 -13.799151,-8.71931 -32.39786,-9.02934 -34.229483,-6.11832 z"
       id="path10" /></g></svg>
