<?xml version="1.0" encoding="UTF-8" standalone="no"?>
<svg
   viewBox="0 0 1090 306"
   version="1.1"
   id="svg1"
   sodipodi:docname="liberapay.svg"
   xml:space="preserve"
   width="1090"
   height="306"
   inkscape:version="1.4 (e7c3feb1, 2024-10-09)"
   xmlns:inkscape="http://www.inkscape.org/namespaces/inkscape"
   xmlns:sodipodi="http://sodipodi.sourceforge.net/DTD/sodipodi-0.dtd"
   xmlns="http://www.w3.org/2000/svg"
   xmlns:svg="http://www.w3.org/2000/svg"><defs
     id="defs1" /><sodipodi:namedview
     id="namedview1"
     pagecolor="#ffffff"
     bordercolor="#000000"
     borderopacity="0.25"
     inkscape:showpageshadow="2"
     inkscape:pageopacity="0.0"
     inkscape:pagecheckerboard="0"
     inkscape:deskcolor="#d1d1d1"
     inkscape:zoom="0.39582005"
     inkscape:cx="426.9617"
     inkscape:cy="159.16324"
     inkscape:window-width="1472"
     inkscape:window-height="819"
     inkscape:window-x="0"
     inkscape:window-y="33"
     inkscape:window-maximized="1"
     inkscape:current-layer="svg1" /><rect
     style="fill:#212121;fill-opacity:1;stroke-width:9.09354"
     id="rect2"
     width="1090"
     height="306"
     x="0"
     y="0"
     ry="50.470032" /><path
     fill="#1a171b"
     d="m 148.73175,210.14808 c -8.85712,0 -15.81078,-1.15597 -20.86133,-3.46074 -5.05054,-2.30476 -8.66571,-5.45665 -10.85713,-9.45429 -2.19142,-3.99763 -3.23851,-8.53731 -3.17585,-13.74776 0.0626,-5.21045 0.77624,-10.69483 2.15171,-16.55792 l 23.76017,-99.347899 29.00213,-4.48831 -26.00605,107.767759 c -0.49923,2.24278 -0.77898,4.30307 -0.84164,6.17194 -0.0626,1.86887 0.27975,3.52409 1.02722,4.95638 0.74749,1.4323 2.02604,2.59068 3.835,3.46109 1.80895,0.87041 4.33423,1.43812 7.57857,1.68637 z m 26.71929,-96.71099 c 4.99919,-1.49531 10.70614,-2.83653 17.12907,-4.02333 6.42293,-1.18679 13.37967,-1.77471 20.86407,-1.77471 7.4844,0 13.00645,1.05873 18.05391,3.1786 5.04747,2.11986 9.19851,5.02213 12.44354,8.7003 3.24501,3.67817 5.6412,7.98363 7.19882,12.90886 1.55762,4.92522 2.33935,10.198 2.33935,15.81352 0,9.10229 -1.49736,17.42868 -4.52461,24.97608 -3.02725,7.54741 -7.10843,14.06449 -12.40792,19.55162 -5.29947,5.48712 -11.66213,9.7621 -19.09381,12.83182 -7.43166,3.0697 -15.48892,4.56912 -24.21456,4.56912 -4.2428,0 -8.4832,-0.37802 -12.72327,-1.12859 l -8.42055,33.86847 h -27.68899 z m 10.11274,73.15865 c 2.1202,0.49924 4.73965,0.73036 7.85831,0.73036 4.86223,0 9.29062,-0.88445 13.28277,-2.69648 3.99216,-1.81203 7.39024,-4.33149 10.198,-7.57582 2.80777,-3.24434 4.98447,-7.13651 6.54586,-11.6933 1.56139,-4.5568 2.33763,-9.57036 2.33763,-15.06023 0,-5.48986 -1.18713,-9.91551 -3.55387,-13.65942 -2.36674,-3.74391 -6.48524,-5.61245 -12.34628,-5.61245 -3.9949,0 -7.73573,0.37392 -11.22831,1.12414 z"
     id="path1"
     style="fill:#f6c915;fill-opacity:1;stroke-width:3.4241" /><path
     style="font-style:italic;font-weight:bold;font-size:137.993px;font-family:Arial;-inkscape-font-specification:'Arial Bold Italic';fill:#fefefe;fill-opacity:1;stroke-width:5.8603"
     d="m 333.44992,195.36687 18.54793,-88.57089 h 18.18543 l -15.40627,73.7688 h 45.07086 l -3.08125,14.80209 z m 93.46464,-88.57089 h 17.33959 l -3.26251,15.70834 h -17.33958 z m -5.075,24.40835 h 17.33958 l -13.4125,64.16254 h -17.3396 z m 20.48125,64.16254 18.48752,-88.57089 h 17.40001 l -6.22292,29.60419 q 4.77291,-3.62501 8.88125,-5.13542 4.16875,-1.57084 9.0625,-1.57084 10.15001,0 16.25211,6.82709 6.10208,6.76667 6.10208,19.75627 0,8.76041 -2.9,17.0375 -2.83959,8.21668 -7.67293,13.41251 -4.77291,5.13542 -10.08958,7.67292 -5.25625,2.47709 -11.05626,2.47709 -13.775,0 -20.23959,-12.08334 l -2.23543,10.57292 z m 23.38127,-26.16043 q 0,6.46459 3.625,10.51251 3.68542,4.04792 8.63959,4.04792 4.35,0 8.27709,-3.14167 3.9875,-3.14168 6.58542,-10.02918 2.65834,-6.8875 2.65834,-13.89584 0,-6.82709 -3.56459,-10.69376 -3.50417,-3.92708 -8.51875,-3.92708 -6.52501,0 -11.23751,6.04167 -6.46459,8.27709 -6.46459,21.08543 z m 115.15424,-0.54375 h -43.50003 q -0.0604,1.02708 -0.0604,1.57083 0,6.40417 3.62502,10.33126 3.68542,3.92708 8.94167,3.92708 8.63959,0 13.47292,-8.94167 l 15.52709,2.59793 q -4.53125,9.36457 -12.14375,14.07708 -7.5521,4.65209 -16.9771,4.65209 -12.92917,0 -21.02501,-8.15625 -8.09584,-8.21668 -8.09584,-21.6896 0,-13.17084 7.31043,-23.44169 9.96876,-13.89584 28.45626,-13.89584 11.78125,0 18.72918,7.31043 6.94792,7.25 6.94792,20.36042 0,6.28334 -1.20834,11.29793 z m -14.62084,-10.57292 q 0.0604,-1.14792 0.0604,-1.75209 0,-7.12917 -3.20208,-10.69376 -3.20209,-3.56458 -8.57917,-3.56458 -5.3771,0 -9.66668,4.04792 -4.22916,4.04792 -5.73959,11.96251 z m 33.41043,-26.88544 h 16.19168 l -2.59791,12.44584 q 9.0625,-13.95626 19.63542,-13.95626 3.74584,0 8.03542,1.87292 l -6.64584,14.19792 q -2.35625,-0.84583 -5.01458,-0.84583 -4.47084,0 -9.12293,3.38334 -4.59167,3.38333 -7.18958,9.0625 -2.59792,5.61876 -5.13543,17.88334 l -4.22917,20.11877 h -17.33958 z m 60.17505,18.18542 -16.91668,-1.44999 q 2.9,-8.57917 10.0896,-13.41251 7.24999,-4.83334 19.15209,-4.83334 12.38542,0 18.30626,5.01459 5.92084,4.95417 5.92084,12.14376 0,2.9 -0.54376,6.16251 -0.48333,3.2625 -3.56458,17.15834 -2.5375,11.47916 -2.5375,16.07084 0,4.10833 1.45,9.12292 h -16.85627 q -1.02708,-3.50417 -1.26874,-7.25 -3.80626,4.22917 -8.76043,6.525 -4.95417,2.23542 -9.96876,2.23542 -7.975,0 -13.17083,-5.19584 -5.19584,-5.25625 -5.19584,-13.47292 0,-9.18334 5.67916,-14.68127 5.7396,-5.49791 20.42086,-6.64583 12.38542,-1.02709 16.55417,-2.47709 1.08751,-3.625 1.08751,-5.8 0,-2.77917 -2.23542,-4.65208 -2.23543,-1.87292 -6.64584,-1.87292 -4.65208,0 -7.37084,1.93333 -2.65834,1.87292 -3.625,5.37708 z m 16.49376,16.07085 q -1.57083,0.42292 -4.16875,0.78542 -13.05001,1.57083 -17.03751,4.59167 -2.83959,2.17501 -2.83959,5.86042 0,3.02084 2.175,5.13542 2.175,2.05417 5.73959,2.05417 3.92708,0 7.37083,-1.87292 3.50418,-1.93333 5.19584,-4.89375 1.75209,-3.02084 3.08125,-9.36459 z m 46.15836,29.90627 h -18.24585 l 18.54793,-88.57089 h 36.00835 q 9.60627,0 15.1646,2.29583 5.61874,2.23543 8.88125,7.49167 3.2625,5.19584 3.2625,12.44585 0,6.70625 -2.59791,13.05001 -2.59792,6.34374 -6.40418,10.15001 -3.74582,3.80625 -8.09583,5.8 -4.35001,1.93333 -11.72084,2.96042 -4.28959,0.60416 -16.07085,0.60416 h -11.66042 z m 10.08959,-48.4542 h 5.61875 q 14.43959,0 19.27293,-1.8125 4.83333,-1.8125 7.6125,-5.8 2.77916,-3.9875 2.77916,-8.76042 0,-3.20209 -1.44999,-5.25625 -1.38958,-2.05418 -3.9875,-2.96042 -2.53751,-0.96667 -11.41876,-0.96667 h -13.05001 z m 78.60213,2.47708 -16.91667,-1.44999 q 2.89999,-8.57917 10.08958,-13.41251 7.25,-4.83334 19.1521,-4.83334 12.38542,0 18.30626,5.01459 5.92084,4.95417 5.92084,12.14376 0,2.9 -0.54375,6.16251 -0.48334,3.2625 -3.56459,17.15834 -2.5375,11.47916 -2.5375,16.07084 0,4.10833 1.45,9.12292 h -16.85626 q -1.02709,-3.50417 -1.26875,-7.25 -3.80626,4.22917 -8.76043,6.525 -4.95417,2.23542 -9.96876,2.23542 -7.975,0 -13.17083,-5.19584 -5.19584,-5.25625 -5.19584,-13.47292 0,-9.18334 5.67917,-14.68127 5.73958,-5.49791 20.42085,-6.64583 12.38542,-1.02709 16.55418,-2.47709 1.0875,-3.625 1.0875,-5.8 0,-2.77917 -2.23543,-4.65208 -2.23541,-1.87292 -6.64583,-1.87292 -4.65208,0 -7.37084,1.93333 -2.65834,1.87292 -3.625,5.37708 z m 16.49376,16.07085 q -1.57084,0.42292 -4.16875,0.78542 -13.05001,1.57083 -17.03751,4.59167 -2.8396,2.17501 -2.8396,5.86042 0,3.02084 2.17501,5.13542 2.175,2.05417 5.73959,2.05417 3.92709,0 7.37084,-1.87292 3.50417,-1.93333 5.19584,-4.89375 1.75208,-3.02084 3.08125,-9.36459 z m 33.22918,-34.25627 h 17.27917 l 4.35001,31.96044 q 1.63124,12.325 1.8125,17.27917 3.38334,-9.84792 9.30418,-20.78334 l 15.34583,-28.45627 h 18.36668 l -39.63335,70.44588 q -4.89375,8.76042 -7.73334,12.2646 -2.77918,3.50416 -6.76668,5.49791 -3.92708,1.99375 -9.48542,1.99375 -5.49792,0 -12.38543,-1.93333 l 1.51043,-12.92917 q 3.14167,0.90624 6.10208,0.90624 7.97501,0 13.11043,-12.08334 z"
     id="text2"
     aria-label="LiberaPay" /></svg>
