<?xml version="1.0" encoding="UTF-8" standalone="no"?>
<svg
   class="ionicon"
   viewBox="0 0 512 512"
   version="1.1"
   id="svg4"
   sodipodi:docname="follower.svg"
   inkscape:version="1.4 (e7c3feb100, 2024-10-09)"
   xmlns:inkscape="http://www.inkscape.org/namespaces/inkscape"
   xmlns:sodipodi="http://sodipodi.sourceforge.net/DTD/sodipodi-0.dtd"
   xmlns="http://www.w3.org/2000/svg"
   xmlns:svg="http://www.w3.org/2000/svg">
  <defs
     id="defs4" />
  <sodipodi:namedview
     id="namedview4"
     pagecolor="#ffffff"
     bordercolor="#000000"
     borderopacity="0.25"
     inkscape:showpageshadow="2"
     inkscape:pageopacity="0.0"
     inkscape:pagecheckerboard="0"
     inkscape:deskcolor="#d1d1d1"
     inkscape:zoom="1.0233713"
     inkscape:cx="127.03111"
     inkscape:cy="170.51484"
     inkscape:window-width="1920"
     inkscape:window-height="952"
     inkscape:window-x="0"
     inkscape:window-y="0"
     inkscape:window-maximized="1"
     inkscape:current-layer="svg4" />
  <path
     d="m 411.73239,162.13415 c -3.1253,43.38096 -35.30635,76.79933 -70.39938,76.79933 -35.09303,0 -67.32742,-33.40771 -70.39939,-76.79933 -3.19997,-45.13027 28.12776,-76.799329 70.39939,-76.799329 42.27163,0 73.59936,32.490379 70.39938,76.799329 z"
     fill="none"
     stroke="currentColor"
     stroke-linecap="round"
     stroke-linejoin="round"
     stroke-width="34.133"
     id="path1"
     style="stroke:#1c9100;stroke-opacity:1" />
  <path
     d="m 341.33301,307.19955 c -69.51406,0 -136.36148,34.5277 -153.108,101.76978 -2.21865,8.89593 3.35997,17.69585 12.50122,17.69585 h 281.22422 c 9.14125,0 14.68787,-8.79992 12.50122,-17.69585 -16.74652,-68.3194 -83.59393,-101.76978 -153.11866,-101.76978 z"
     fill="none"
     stroke="currentColor"
     stroke-miterlimit="10"
     stroke-width="34.133"
     id="path2"
     style="stroke:#1c9100;stroke-opacity:1" />
  <path
     d="m 196.26761,181.26998 c -2.49598,34.64504 -28.50109,61.93013 -56.53284,61.93013 -28.03176,0 -54.079533,-27.27443 -56.532845,-61.93013 -2.549312,-36.04235 22.762465,-61.80212 56.532845,-61.80212 33.77037,0 59.08215,26.4211 56.53284,61.80212 z"
     fill="none"
     stroke="currentColor"
     stroke-linecap="round"
     stroke-linejoin="round"
     stroke-width="34.133"
     id="path3"
     style="stroke:#1c9100;stroke-opacity:1" />
  <path
     d="m 202.66755,309.33287 c -19.25317,-8.82126 -40.45831,-12.21323 -62.93278,-12.21323 -55.466188,0 -108.905722,27.57309 -122.292272,81.27929 -1.759985,7.10394 2.698643,14.13321 9.994579,14.13321 H 147.20137"
     fill="none"
     stroke="currentColor"
     stroke-linecap="round"
     stroke-miterlimit="10"
     stroke-width="34.133"
     id="path4"
     style="stroke:#1c9100;stroke-opacity:1" />
</svg>
